# xmcd
#
# Track frame offsets: 
#        150
#        16018
#        27342
#        42816
#        58018
#        69707
#        84765
#        98247
#        112070
#        123459
#        137674
#        152594
#        166059
#        178186
#        190052
#        204877
#
# Disc length: 2912 seconds
#
# Revision: 0
# Processed by: cddbd v1.5.2PL0 Copyright (c) Steve Scherf et al.
# Submitted via: ExactAudioCopy v0.99pb4
#
DISCID=ca0b5e10
DTITLE=Luis Mariano - Mexico
DYEAR=2002
DGENRE=Chanson
TTITLE0=Mexico
TTITLE1=La Belle de Cadix
TTITLE2=L'amour Est Un Bouquet de Violettes
TTITLE3=Rossignol
TTITLE4=Perfidia
TTITLE5=La Belle Au Bois Dormant
TTITLE6=Lolita
TTITLE7=Andalousie
TTITLE8=Maria Luisa
TTITLE9=C'est La Fiesta Bohemienne
TTITLE10=Aucune Importance
TTITLE11=Rien Que Toi
TTITLE12=Je N'ai Besoin Que D'un
TTITLE13=Vous Mon Beau Souvenir
TTITLE14=Corsaire D'amour
TTITLE15=Baia
EXTD=
EXTT0=
EXTT1=
EXTT2=
EXTT3=
EXTT4=
EXTT5=
EXTT6=
EXTT7=
EXTT8=
EXTT9=
EXTT10=
EXTT11=
EXTT12=
EXTT13=
EXTT14=
EXTT15=
PLAYORDER=
